<?xml version="1.0" standalone="no"?><!DOCTYPE svg PUBLIC "-//W3C//DTD SVG 1.1//EN" "http://www.w3.org/Graphics/SVG/1.1/DTD/svg11.dtd"><svg height="32" node-id="1" sillyvg="true" template-height="32" template-width="32" version="1.1" viewBox="0 0 32 32" width="32" xmlns="http://www.w3.org/2000/svg" xmlns:xlink="http://www.w3.org/1999/xlink"><defs node-id="104"><linearGradient gradientUnits="objectBoundingBox" id="paint9_linear_6813_5229" node-id="61" spreadMethod="pad" x1="22.6865" x2="8.62399" y1="12.0142" y2="17.3773"><stop offset="0" stop-color="#e78f00"></stop><stop offset="1" stop-color="#d07000"></stop></linearGradient><linearGradient gradientUnits="objectBoundingBox" id="paint17_linear_6813_5229" node-id="85" spreadMethod="pad" x1="11.7919" x2="10.3984" y1="7.79545" y2="10.9574"><stop offset="0" stop-color="#ffffff"></stop><stop offset="0.973958" stop-color="#ffffff" stop-opacity="0"></stop></linearGradient><linearGradient gradientUnits="objectBoundingBox" id="paint22_linear_6813_5229" node-id="100" spreadMethod="pad" x1="27.8261" x2="26.4326" y1="7.79545" y2="10.9574"><stop offset="0" stop-color="#ffffff"></stop><stop offset="0.973958" stop-color="#ffffff" stop-opacity="0"></stop></linearGradient><radialGradient cx="0" cy="0" fx="0" fy="0" gradientUnits="objectBoundingBox" id="paint0_radial_6813_5229" node-id="31" r="1" rev="20" spreadMethod="pad"><stop offset="0" stop-color="#fff478"></stop><stop offset="0.474827" stop-color="#ffb02e"></stop><stop offset="1" stop-color="#f70a8d"></stop></radialGradient><radialGradient cx="0" cy="0" fx="0" fy="0" gradientUnits="objectBoundingBox" id="paint1_radial_6813_5229" node-id="35" r="1" rev="19" spreadMethod="pad"><stop offset="0" stop-color="#fff478"></stop><stop offset="0.474827" stop-color="#ffb02e"></stop><stop offset="1" stop-color="#f70a8d"></stop></radialGradient><radialGradient cx="0" cy="0" fx="0" fy="0" gradientUnits="objectBoundingBox" id="paint2_radial_6813_5229" node-id="39" r="1" rev="18" spreadMethod="pad"><stop offset="0.787821" stop-color="#f59639" stop-opacity="0"></stop><stop offset="0.972509" stop-color="#ff7dce"></stop></radialGradient><radialGradient cx="0" cy="0" fx="0" fy="0" gradientUnits="objectBoundingBox" id="paint3_radial_6813_5229" node-id="42" r="1" rev="17" spreadMethod="pad"><stop offset="0.314853" stop-color="#000000" stop-opacity="0"></stop><stop offset="1" stop-color="#000000"></stop></radialGradient><radialGradient cx="0" cy="0" fx="0" fy="0" gradientUnits="objectBoundingBox" id="paint4_radial_6813_5229" node-id="45" r="1" rev="16" spreadMethod="pad"><stop offset="0.507903" stop-color="#7d6133" stop-opacity="0"></stop><stop offset="1" stop-color="#715b32"></stop></radialGradient><radialGradient cx="0" cy="0" fx="0" fy="0" gradientUnits="objectBoundingBox" id="paint5_radial_6813_5229" node-id="48" r="1" rev="15" spreadMethod="pad"><stop offset="0" stop-color="#ffb849"></stop><stop offset="1" stop-color="#ffb847" stop-opacity="0"></stop></radialGradient><radialGradient cx="0" cy="0" fx="0" fy="0" gradientUnits="objectBoundingBox" id="paint6_radial_6813_5229" node-id="51" r="1" rev="14" spreadMethod="pad"><stop offset="0" stop-color="#ffa64b"></stop><stop offset="0.900412" stop-color="#ffae46" stop-opacity="0"></stop></radialGradient><radialGradient cx="0" cy="0" fx="0" fy="0" gradientUnits="objectBoundingBox" id="paint7_radial_6813_5229" node-id="54" r="1" rev="13" spreadMethod="pad"><stop offset="0.185425" stop-color="#000000" stop-opacity="0"></stop><stop offset="1" stop-color="#000000" stop-opacity="0.4"></stop></radialGradient><radialGradient cx="0" cy="0" fx="0" fy="0" gradientUnits="objectBoundingBox" id="paint8_radial_6813_5229" node-id="57" r="1" rev="12" spreadMethod="pad"><stop offset="0.145833" stop-color="#2e1529"></stop><stop offset="0.276042" stop-color="#503a4a"></stop><stop offset="0.342857" stop-color="#4b2744"></stop></radialGradient><radialGradient cx="0" cy="0" fx="0" fy="0" gradientUnits="objectBoundingBox" id="paint10_radial_6813_5229" node-id="64" r="1" rev="11" spreadMethod="pad"><stop offset="0" stop-color="#5f5b9b"></stop><stop offset="1" stop-color="#5c3085"></stop></radialGradient><radialGradient cx="0" cy="0" fx="0" fy="0" gradientUnits="objectBoundingBox" id="paint11_radial_6813_5229" node-id="67" r="1" rev="10" spreadMethod="pad"><stop offset="0.776042" stop-color="#77579c"></stop><stop offset="0.9375" stop-color="#77579c" stop-opacity="0"></stop></radialGradient><radialGradient cx="0" cy="0" fx="0" fy="0" gradientUnits="objectBoundingBox" id="paint12_radial_6813_5229" node-id="70" r="1" rev="9" spreadMethod="pad"><stop offset="0.769354" stop-color="#4e3d92"></stop><stop offset="1" stop-color="#534687" stop-opacity="0"></stop></radialGradient><radialGradient cx="0" cy="0" fx="0" fy="0" gradientUnits="objectBoundingBox" id="paint13_radial_6813_5229" node-id="73" r="1" rev="8" spreadMethod="pad"><stop offset="0" stop-color="#4c3d70"></stop><stop offset="1" stop-color="#361c5d"></stop></radialGradient><radialGradient cx="0" cy="0" fx="0" fy="0" gradientUnits="objectBoundingBox" id="paint14_radial_6813_5229" node-id="76" r="1" rev="7" spreadMethod="pad"><stop offset="0.647365" stop-color="#5b2b84" stop-opacity="0"></stop><stop offset="1" stop-color="#5b2b84"></stop></radialGradient><radialGradient cx="0" cy="0" fx="0" fy="0" gradientUnits="objectBoundingBox" id="paint15_radial_6813_5229" node-id="79" r="1" rev="6" spreadMethod="pad"><stop offset="0.858612" stop-color="#2e1d57" stop-opacity="0"></stop><stop offset="1" stop-color="#20143d"></stop></radialGradient><radialGradient cx="0" cy="0" fx="0" fy="0" gradientUnits="objectBoundingBox" id="paint16_radial_6813_5229" node-id="82" r="1" rev="5" spreadMethod="pad"><stop offset="0.872281" stop-color="#2e1d57" stop-opacity="0"></stop><stop offset="1" stop-color="#20143d" stop-opacity="0.6"></stop></radialGradient><radialGradient cx="0" cy="0" fx="0" fy="0" gradientUnits="objectBoundingBox" id="paint18_radial_6813_5229" node-id="88" r="1" rev="4" spreadMethod="pad"><stop offset="0" stop-color="#4c3d70"></stop><stop offset="1" stop-color="#361c5d"></stop></radialGradient><radialGradient cx="0" cy="0" fx="0" fy="0" gradientUnits="objectBoundingBox" id="paint19_radial_6813_5229" node-id="91" r="1" rev="3" spreadMethod="pad"><stop offset="0.647365" stop-color="#5b2b84" stop-opacity="0"></stop><stop offset="1" stop-color="#5b2b84"></stop></radialGradient><radialGradient cx="0" cy="0" fx="0" fy="0" gradientUnits="objectBoundingBox" id="paint20_radial_6813_5229" node-id="94" r="1" rev="2" spreadMethod="pad"><stop offset="0.858612" stop-color="#2e1d57" stop-opacity="0"></stop><stop offset="1" stop-color="#20143d"></stop></radialGradient><radialGradient cx="0" cy="0" fx="0" fy="0" gradientUnits="objectBoundingBox" id="paint21_radial_6813_5229" node-id="97" r="1" rev="1" spreadMethod="pad"><stop offset="0.872281" stop-color="#2e1d57" stop-opacity="0"></stop><stop offset="1" stop-color="#20143d" stop-opacity="0.6"></stop></radialGradient><filter filterUnits="objectBoundingBox" height="14.2215" id="filter0_f_6813_5229" node-id="27" width="28.5722" x="2.34846" y="4.90345"><feFlood color-interpolation-filters="sRGB" flood-color="#000000" flood-opacity="0" result="BackgroundImageFix"></feFlood><feBlend color-interpolation-filters="sRGB" in="SourceGraphic" in2="BackgroundImageFix" mode="normal" result="shape"></feBlend><feGaussianBlur color-interpolation-filters="sRGB" in="shape" result="effect1_foregroundBlur_6813_5229" stdDeviation="0.6 0.6"></feGaussianBlur></filter></defs><path d="M 16.00 30.00 C 25.33 30.00 30.00 23.73 30.00 16.00 C 30.00 8.27 25.33 2.00 16.00 2.00 C 6.66 2.00 2.00 8.27 2.00 16.00 C 2.00 23.73 6.66 30.00 16.00 30.00 Z" fill="url(#paint0_radial_6813_5229)" fill-rule="nonzero" node-id="259" stroke="none" target-height="27.9978" target-width="27.9978" target-x="1.9989" target-y="2"></path><path d="M 16.00 30.00 C 25.33 30.00 30.00 23.73 30.00 16.00 C 30.00 8.27 25.33 2.00 16.00 2.00 C 6.66 2.00 2.00 8.27 2.00 16.00 C 2.00 23.73 6.66 30.00 16.00 30.00 Z" fill="url(#paint1_radial_6813_5229)" fill-rule="nonzero" node-id="261" stroke="none" target-height="27.9978" target-width="27.9978" target-x="1.9989" target-y="2"></path><path d="M 16.00 30.00 C 25.33 30.00 30.00 23.73 30.00 16.00 C 30.00 8.27 25.33 2.00 16.00 2.00 C 6.66 2.00 2.00 8.27 2.00 16.00 C 2.00 23.73 6.66 30.00 16.00 30.00 Z" fill="url(#paint2_radial_6813_5229)" fill-rule="nonzero" node-id="263" stroke="none" target-height="27.9978" target-width="27.9978" target-x="1.9989" target-y="2"></path><path d="M 16.00 30.00 C 25.33 30.00 30.00 23.73 30.00 16.00 C 30.00 8.27 25.33 2.00 16.00 2.00 C 6.66 2.00 2.00 8.27 2.00 16.00 C 2.00 23.73 6.66 30.00 16.00 30.00 Z" fill="url(#paint3_radial_6813_5229)" fill-opacity="0.6" fill-rule="nonzero" node-id="265" stroke="none" target-height="27.9978" target-width="27.9978" target-x="1.9989" target-y="2"></path><path d="M 16.00 30.00 C 25.33 30.00 30.00 23.73 30.00 16.00 C 30.00 8.27 25.33 2.00 16.00 2.00 C 6.66 2.00 2.00 8.27 2.00 16.00 C 2.00 23.73 6.66 30.00 16.00 30.00 Z" fill="url(#paint4_radial_6813_5229)" fill-rule="nonzero" node-id="267" stroke="none" target-height="27.9978" target-width="27.9978" target-x="1.9989" target-y="2"></path><path d="M 16.00 30.00 C 25.33 30.00 30.00 23.73 30.00 16.00 C 30.00 8.27 25.33 2.00 16.00 2.00 C 6.66 2.00 2.00 8.27 2.00 16.00 C 2.00 23.73 6.66 30.00 16.00 30.00 Z" fill="url(#paint5_radial_6813_5229)" fill-rule="nonzero" node-id="269" stroke="none" target-height="27.9978" target-width="27.9978" target-x="1.9989" target-y="2"></path><path d="M 16.00 30.00 C 25.33 30.00 30.00 23.73 30.00 16.00 C 30.00 8.27 25.33 2.00 16.00 2.00 C 6.66 2.00 2.00 8.27 2.00 16.00 C 2.00 23.73 6.66 30.00 16.00 30.00 Z" fill="url(#paint6_radial_6813_5229)" fill-rule="nonzero" node-id="271" stroke="none" target-height="27.9978" target-width="27.9978" target-x="1.9989" target-y="2"></path><path d="M 16.00 30.00 C 25.33 30.00 30.00 23.73 30.00 16.00 C 30.00 8.27 25.33 2.00 16.00 2.00 C 6.66 2.00 2.00 8.27 2.00 16.00 C 2.00 23.73 6.66 30.00 16.00 30.00 Z" fill="url(#paint7_radial_6813_5229)" fill-rule="nonzero" node-id="273" stroke="none" target-height="27.9978" target-width="27.9978" target-x="1.9989" target-y="2"></path><path d="M 11.33 19.00 C 11.33 19.00 12.73 21.00 16.00 21.00 C 19.27 21.00 20.67 19.00 20.67 19.00" fill="none" node-id="275" stroke="url(#paint8_radial_6813_5229)" stroke-linecap="round" stroke-width="2" target-height="2" target-width="9.343801" target-x="11.326999" target-y="19"></path><g node-id="313"><path d="M 3.55 14.60 C 3.77 15.50 4.40 17.22 6.40 17.72 C 6.70 17.79 7.00 17.85 7.29 17.89 C 7.30 17.89 7.32 17.89 7.33 17.89 C 11.64 18.30 14.48 14.66 14.62 10.70 C 14.64 10.37 14.89 10.09 15.22 10.09 C 15.39 10.09 15.57 10.09 15.76 10.09 C 16.09 10.10 16.34 10.37 16.35 10.70 C 16.49 14.66 19.33 18.30 23.64 17.89 C 23.65 17.89 23.67 17.89 23.68 17.89 C 23.98 17.85 24.27 17.79 24.57 17.72 C 27.23 17.06 28.88 15.32 29.72 13.44 C 29.59 12.65 29.40 11.88 29.16 11.14 C 28.91 13.35 27.73 13.62 24.57 14.41 C 24.31 14.47 23.42 15.09 23.16 15.13 C 20.16 15.41 19.31 13.44 17.61 10.30 L 17.61 10.27 C 17.61 10.25 17.61 10.24 17.61 10.22 C 17.72 10.24 17.83 10.25 17.94 10.27 L 18.22 8.50 C 18.53 8.09 18.96 7.77 19.44 7.58 C 19.56 7.53 19.83 7.41 20.65 7.26 C 21.51 7.10 23.79 7.10 25.18 7.10 L 25.49 7.10 C 26.23 7.10 26.90 7.32 27.33 7.51 C 26.98 7.03 26.59 6.57 26.16 6.14 C 25.94 6.12 25.72 6.10 25.49 6.10 L 25.18 6.10 C 24.49 6.10 23.56 6.10 22.69 6.12 C 21.86 6.14 20.62 6.19 20.10 6.29 C 19.24 6.45 18.89 6.58 18.69 6.67 C 18.14 6.89 17.66 7.23 17.29 7.65 C 17.04 7.94 16.69 8.12 16.32 8.11 C 15.72 8.08 15.15 8.08 14.65 8.10 C 14.28 8.12 13.93 7.93 13.68 7.65 C 13.31 7.23 12.83 6.89 12.28 6.67 C 12.08 6.58 11.73 6.45 10.87 6.29 C 10.35 6.19 9.11 6.14 8.28 6.12 C 7.41 6.10 6.49 6.10 5.79 6.10 L 5.78 6.10 C 5.45 6.44 5.14 6.79 4.85 7.15 C 5.05 7.12 5.26 7.10 5.48 7.10 L 5.79 7.10 C 7.18 7.10 9.46 7.10 10.32 7.26 C 11.15 7.41 11.41 7.53 11.53 7.58 C 12.00 7.76 12.41 8.07 12.72 8.45 L 13.06 10.27 C 13.14 10.25 13.24 10.23 13.36 10.22 C 13.36 10.23 13.36 10.25 13.36 10.27 L 13.36 10.30 C 13.54 14.51 10.33 17.05 7.33 16.77 C 7.07 16.73 6.81 16.68 6.55 16.62 C 4.25 16.05 4.42 14.36 3.77 12.75 C 3.65 13.34 3.60 13.98 3.55 14.60 Z" fill="url(#paint9_linear_6813_5229)" fill-rule="nonzero" filter="url(#filter0_f_6813_5229)" group-id="1" node-id="279" stroke="none" target-height="12.19544" target-width="26.17224" target-x="3.5484602" target-y="6.10236"></path></g><path d="M 12.80 5.67 C 13.35 5.89 13.82 6.23 14.20 6.65 C 14.44 6.93 14.79 7.12 15.16 7.10 C 15.67 7.08 16.23 7.08 16.83 7.11 C 17.20 7.12 17.55 6.94 17.80 6.65 C 18.17 6.23 18.65 5.89 19.20 5.67 C 19.40 5.58 19.75 5.45 20.61 5.29 C 21.13 5.19 22.37 5.14 23.21 5.12 C 24.07 5.10 25.00 5.10 25.69 5.10 L 26.01 5.10 C 27.20 5.10 28.37 5.48 28.83 5.76 C 29.88 6.29 30.85 7.31 30.92 9.05 C 30.92 9.08 30.92 9.11 30.93 9.13 C 31.01 11.82 29.34 15.67 25.08 16.72 C 24.78 16.79 24.49 16.85 24.19 16.89 C 24.18 16.89 24.17 16.89 24.15 16.89 C 19.85 17.30 17.00 13.66 16.86 9.70 C 16.85 9.37 16.60 9.10 16.27 9.09 C 16.09 9.09 15.90 9.09 15.73 9.09 C 15.40 9.09 15.15 9.37 15.14 9.70 C 15.00 13.66 12.15 17.30 7.85 16.89 C 7.83 16.89 7.82 16.89 7.80 16.89 C 7.51 16.85 7.21 16.79 6.92 16.72 C 2.66 15.67 0.99 11.82 1.07 9.13 C 1.07 9.11 1.08 9.08 1.08 9.05 C 1.15 7.31 2.12 6.29 3.16 5.76 C 3.63 5.48 4.80 5.10 5.99 5.10 L 6.31 5.10 C 7.00 5.10 7.93 5.10 8.79 5.12 C 9.63 5.14 10.87 5.19 11.39 5.29 C 12.25 5.45 12.59 5.58 12.80 5.67 Z M 2.49 8.16 C 2.74 7.56 3.20 7.06 3.83 6.68 C 4.18 6.47 5.03 6.10 5.99 6.10 L 6.30 6.10 C 7.69 6.10 9.98 6.10 10.83 6.26 C 11.66 6.41 11.93 6.53 12.04 6.58 C 12.51 6.76 12.92 7.07 13.23 7.45 L 13.57 9.27 C 13.66 9.25 13.76 9.23 13.87 9.22 C 13.87 9.23 13.87 9.25 13.87 9.27 L 13.87 9.30 C 14.05 13.51 10.85 16.05 7.85 15.77 C 7.58 15.73 7.32 15.68 7.06 15.62 C 3.90 14.84 2.58 12.35 2.32 10.14 C 2.28 9.80 2.27 9.47 2.28 9.15 L 2.28 9.14 L 2.28 9.14 L 2.28 9.13 C 2.30 8.79 2.37 8.46 2.49 8.16 Z M 18.12 9.22 C 18.12 9.24 18.12 9.25 18.12 9.27 L 18.12 9.30 C 17.94 13.51 21.15 16.05 24.15 15.77 C 24.42 15.73 24.68 15.68 24.94 15.62 C 28.10 14.84 29.42 12.35 29.67 10.14 C 29.71 9.80 29.73 9.47 29.72 9.15 L 29.72 9.14 L 29.72 9.14 L 29.72 9.13 C 29.70 8.79 29.63 8.46 29.51 8.16 C 29.26 7.56 28.79 7.06 28.17 6.68 C 27.82 6.47 26.97 6.10 26.01 6.10 L 25.70 6.10 C 24.30 6.10 22.02 6.10 21.17 6.26 C 20.34 6.41 20.07 6.53 19.96 6.58 C 19.47 6.77 19.05 7.09 18.73 7.50 L 18.46 9.27 C 18.34 9.25 18.23 9.24 18.12 9.22 Z" fill="url(#paint10_radial_6813_5229)" fill-rule="evenodd" node-id="282" stroke="none" target-height="12.19544" target-width="30.017887" target-x="0.990014" target-y="5.10236"></path><path d="M 12.80 5.67 C 13.35 5.89 13.82 6.23 14.20 6.65 C 14.44 6.93 14.79 7.12 15.16 7.10 C 15.67 7.08 16.23 7.08 16.83 7.11 C 17.20 7.12 17.55 6.94 17.80 6.65 C 18.17 6.23 18.65 5.89 19.20 5.67 C 19.40 5.58 19.75 5.45 20.61 5.29 C 21.13 5.19 22.37 5.14 23.21 5.12 C 24.07 5.10 25.00 5.10 25.69 5.10 L 26.01 5.10 C 27.20 5.10 28.37 5.48 28.83 5.76 C 29.88 6.29 30.85 7.31 30.92 9.05 C 30.92 9.08 30.92 9.11 30.93 9.13 C 31.01 11.82 29.34 15.67 25.08 16.72 C 24.78 16.79 24.49 16.85 24.19 16.89 C 24.18 16.89 24.17 16.89 24.15 16.89 C 19.85 17.30 17.00 13.66 16.86 9.70 C 16.85 9.37 16.60 9.10 16.27 9.09 C 16.09 9.09 15.90 9.09 15.73 9.09 C 15.40 9.09 15.15 9.37 15.14 9.70 C 15.00 13.66 12.15 17.30 7.85 16.89 C 7.83 16.89 7.82 16.89 7.80 16.89 C 7.51 16.85 7.21 16.79 6.92 16.72 C 2.66 15.67 0.99 11.82 1.07 9.13 C 1.07 9.11 1.08 9.08 1.08 9.05 C 1.15 7.31 2.12 6.29 3.16 5.76 C 3.63 5.48 4.80 5.10 5.99 5.10 L 6.31 5.10 C 7.00 5.10 7.93 5.10 8.79 5.12 C 9.63 5.14 10.87 5.19 11.39 5.29 C 12.25 5.45 12.59 5.58 12.80 5.67 Z M 2.49 8.16 C 2.74 7.56 3.20 7.06 3.83 6.68 C 4.18 6.47 5.03 6.10 5.99 6.10 L 6.30 6.10 C 7.69 6.10 9.98 6.10 10.83 6.26 C 11.66 6.41 11.93 6.53 12.04 6.58 C 12.51 6.76 12.92 7.07 13.23 7.45 L 13.57 9.27 C 13.66 9.25 13.76 9.23 13.87 9.22 C 13.87 9.23 13.87 9.25 13.87 9.27 L 13.87 9.30 C 14.05 13.51 10.85 16.05 7.85 15.77 C 7.58 15.73 7.32 15.68 7.06 15.62 C 3.90 14.84 2.58 12.35 2.32 10.14 C 2.28 9.80 2.27 9.47 2.28 9.15 L 2.28 9.14 L 2.28 9.14 L 2.28 9.13 C 2.30 8.79 2.37 8.46 2.49 8.16 Z M 18.12 9.22 C 18.12 9.24 18.12 9.25 18.12 9.27 L 18.12 9.30 C 17.94 13.51 21.15 16.05 24.15 15.77 C 24.42 15.73 24.68 15.68 24.94 15.62 C 28.10 14.84 29.42 12.35 29.67 10.14 C 29.71 9.80 29.73 9.47 29.72 9.15 L 29.72 9.14 L 29.72 9.14 L 29.72 9.13 C 29.70 8.79 29.63 8.46 29.51 8.16 C 29.26 7.56 28.79 7.06 28.17 6.68 C 27.82 6.47 26.97 6.10 26.01 6.10 L 25.70 6.10 C 24.30 6.10 22.02 6.10 21.17 6.26 C 20.34 6.41 20.07 6.53 19.96 6.58 C 19.47 6.77 19.05 7.09 18.73 7.50 L 18.46 9.27 C 18.34 9.25 18.23 9.24 18.12 9.22 Z" fill="url(#paint11_radial_6813_5229)" fill-rule="evenodd" node-id="284" stroke="none" target-height="12.19544" target-width="30.017887" target-x="0.990014" target-y="5.10236"></path><path d="M 12.80 5.67 C 13.35 5.89 13.82 6.23 14.20 6.65 C 14.44 6.93 14.79 7.12 15.16 7.10 C 15.67 7.08 16.23 7.08 16.83 7.11 C 17.20 7.12 17.55 6.94 17.80 6.65 C 18.17 6.23 18.65 5.89 19.20 5.67 C 19.40 5.58 19.75 5.45 20.61 5.29 C 21.13 5.19 22.37 5.14 23.21 5.12 C 24.07 5.10 25.00 5.10 25.69 5.10 L 26.01 5.10 C 27.20 5.10 28.37 5.48 28.83 5.76 C 29.88 6.29 30.85 7.31 30.92 9.05 C 30.92 9.08 30.92 9.11 30.93 9.13 C 31.01 11.82 29.34 15.67 25.08 16.72 C 24.78 16.79 24.49 16.85 24.19 16.89 C 24.18 16.89 24.17 16.89 24.15 16.89 C 19.85 17.30 17.00 13.66 16.86 9.70 C 16.85 9.37 16.60 9.10 16.27 9.09 C 16.09 9.09 15.90 9.09 15.73 9.09 C 15.40 9.09 15.15 9.37 15.14 9.70 C 15.00 13.66 12.15 17.30 7.85 16.89 C 7.83 16.89 7.82 16.89 7.80 16.89 C 7.51 16.85 7.21 16.79 6.92 16.72 C 2.66 15.67 0.99 11.82 1.07 9.13 C 1.07 9.11 1.08 9.08 1.08 9.05 C 1.15 7.31 2.12 6.29 3.16 5.76 C 3.63 5.48 4.80 5.10 5.99 5.10 L 6.31 5.10 C 7.00 5.10 7.93 5.10 8.79 5.12 C 9.63 5.14 10.87 5.19 11.39 5.29 C 12.25 5.45 12.59 5.58 12.80 5.67 Z M 2.49 8.16 C 2.74 7.56 3.20 7.06 3.83 6.68 C 4.18 6.47 5.03 6.10 5.99 6.10 L 6.30 6.10 C 7.69 6.10 9.98 6.10 10.83 6.26 C 11.66 6.41 11.93 6.53 12.04 6.58 C 12.51 6.76 12.92 7.07 13.23 7.45 L 13.57 9.27 C 13.66 9.25 13.76 9.23 13.87 9.22 C 13.87 9.23 13.87 9.25 13.87 9.27 L 13.87 9.30 C 14.05 13.51 10.85 16.05 7.85 15.77 C 7.58 15.73 7.32 15.68 7.06 15.62 C 3.90 14.84 2.58 12.35 2.32 10.14 C 2.28 9.80 2.27 9.47 2.28 9.15 L 2.28 9.14 L 2.28 9.14 L 2.28 9.13 C 2.30 8.79 2.37 8.46 2.49 8.16 Z M 18.12 9.22 C 18.12 9.24 18.12 9.25 18.12 9.27 L 18.12 9.30 C 17.94 13.51 21.15 16.05 24.15 15.77 C 24.42 15.73 24.68 15.68 24.94 15.62 C 28.10 14.84 29.42 12.35 29.67 10.14 C 29.71 9.80 29.73 9.47 29.72 9.15 L 29.72 9.14 L 29.72 9.14 L 29.72 9.13 C 29.70 8.79 29.63 8.46 29.51 8.16 C 29.26 7.56 28.79 7.06 28.17 6.68 C 27.82 6.47 26.97 6.10 26.01 6.10 L 25.70 6.10 C 24.30 6.10 22.02 6.10 21.17 6.26 C 20.34 6.41 20.07 6.53 19.96 6.58 C 19.47 6.77 19.05 7.09 18.73 7.50 L 18.46 9.27 C 18.34 9.25 18.23 9.24 18.12 9.22 Z" fill="url(#paint12_radial_6813_5229)" fill-rule="evenodd" node-id="286" stroke="none" target-height="12.19544" target-width="30.017887" target-x="0.990014" target-y="5.10236"></path><path d="M 3.83 6.68 C 4.18 6.47 5.03 6.10 5.99 6.10 C 6.09 6.10 6.19 6.10 6.30 6.10 C 7.69 6.10 9.98 6.10 10.83 6.26 C 11.66 6.41 11.93 6.53 12.04 6.58 C 13.12 7.00 13.87 8.04 13.87 9.27 L 13.87 9.30 C 14.05 13.51 10.85 16.05 7.85 15.77 C 7.58 15.73 7.32 15.68 7.06 15.62 C 3.41 14.71 2.21 11.53 2.28 9.14 L 2.28 9.14 C 2.32 8.08 2.90 7.24 3.83 6.68 Z" fill="url(#paint13_radial_6813_5229)" fill-rule="nonzero" node-id="288" stroke="none" target-height="9.947281" target-width="11.846491" target-x="2.20711" target-y="6.10072"></path><path d="M 3.83 6.68 C 4.18 6.47 5.03 6.10 5.99 6.10 C 6.09 6.10 6.19 6.10 6.30 6.10 C 7.69 6.10 9.98 6.10 10.83 6.26 C 11.66 6.41 11.93 6.53 12.04 6.58 C 13.12 7.00 13.87 8.04 13.87 9.27 L 13.87 9.30 C 14.05 13.51 10.85 16.05 7.85 15.77 C 7.58 15.73 7.32 15.68 7.06 15.62 C 3.41 14.71 2.21 11.53 2.28 9.14 L 2.28 9.14 C 2.32 8.08 2.90 7.24 3.83 6.68 Z" fill="url(#paint14_radial_6813_5229)" fill-rule="nonzero" node-id="290" stroke="none" target-height="9.947281" target-width="11.846491" target-x="2.20711" target-y="6.10072"></path><path d="M 3.83 6.68 C 4.18 6.47 5.03 6.10 5.99 6.10 C 6.09 6.10 6.19 6.10 6.30 6.10 C 7.69 6.10 9.98 6.10 10.83 6.26 C 11.66 6.41 11.93 6.53 12.04 6.58 C 13.12 7.00 13.87 8.04 13.87 9.27 L 13.87 9.30 C 14.05 13.51 10.85 16.05 7.85 15.77 C 7.58 15.73 7.32 15.68 7.06 15.62 C 3.41 14.71 2.21 11.53 2.28 9.14 L 2.28 9.14 C 2.32 8.08 2.90 7.24 3.83 6.68 Z" fill="url(#paint15_radial_6813_5229)" fill-rule="nonzero" node-id="292" stroke="none" target-height="9.947281" target-width="11.846491" target-x="2.20711" target-y="6.10072"></path><path d="M 3.83 6.68 C 4.18 6.47 5.03 6.10 5.99 6.10 C 6.09 6.10 6.19 6.10 6.30 6.10 C 7.69 6.10 9.98 6.10 10.83 6.26 C 11.66 6.41 11.93 6.53 12.04 6.58 C 13.12 7.00 13.87 8.04 13.87 9.27 L 13.87 9.30 C 14.05 13.51 10.85 16.05 7.85 15.77 C 7.58 15.73 7.32 15.68 7.06 15.62 C 3.41 14.71 2.21 11.53 2.28 9.14 L 2.28 9.14 C 2.32 8.08 2.90 7.24 3.83 6.68 Z" fill="url(#paint16_radial_6813_5229)" fill-rule="nonzero" node-id="294" stroke="none" target-height="9.947281" target-width="11.846491" target-x="2.20711" target-y="6.10072"></path><g node-id="314"><path d="M 12.48 8.49 C 12.94 9.42 12.70 10.47 11.96 10.83 C 11.22 11.19 10.25 10.73 9.79 9.80 C 9.34 8.86 9.58 7.81 10.32 7.45 C 11.06 7.09 12.03 7.56 12.48 8.49 Z" fill="url(#paint17_linear_6813_5229)" fill-rule="nonzero" group-id="2" node-id="298" stroke="none" target-height="4.1016736" target-width="3.5946598" target-x="9.340771" target-y="7.092054"></path></g><path d="M 28.17 6.68 C 27.82 6.47 26.97 6.10 26.01 6.10 C 25.91 6.10 25.81 6.10 25.70 6.10 C 24.30 6.10 22.02 6.10 21.17 6.26 C 20.34 6.41 20.07 6.53 19.96 6.58 C 18.88 7.00 18.12 8.04 18.12 9.27 L 18.12 9.30 C 17.94 13.51 21.15 16.05 24.15 15.77 C 24.42 15.73 24.68 15.68 24.94 15.62 C 28.59 14.71 29.79 11.53 29.72 9.14 L 29.72 9.14 C 29.68 8.08 29.10 7.24 28.17 6.68 Z" fill="url(#paint18_radial_6813_5229)" fill-rule="nonzero" node-id="301" stroke="none" target-height="9.947281" target-width="11.8465" target-x="17.9443" target-y="6.10072"></path><path d="M 28.17 6.68 C 27.82 6.47 26.97 6.10 26.01 6.10 C 25.91 6.10 25.81 6.10 25.70 6.10 C 24.30 6.10 22.02 6.10 21.17 6.26 C 20.34 6.41 20.07 6.53 19.96 6.58 C 18.88 7.00 18.12 8.04 18.12 9.27 L 18.12 9.30 C 17.94 13.51 21.15 16.05 24.15 15.77 C 24.42 15.73 24.68 15.68 24.94 15.62 C 28.59 14.71 29.79 11.53 29.72 9.14 L 29.72 9.14 C 29.68 8.08 29.10 7.24 28.17 6.68 Z" fill="url(#paint19_radial_6813_5229)" fill-rule="nonzero" node-id="303" stroke="none" target-height="9.947281" target-width="11.8465" target-x="17.9443" target-y="6.10072"></path><path d="M 28.17 6.68 C 27.82 6.47 26.97 6.10 26.01 6.10 C 25.91 6.10 25.81 6.10 25.70 6.10 C 24.30 6.10 22.02 6.10 21.17 6.26 C 20.34 6.41 20.07 6.53 19.96 6.58 C 18.88 7.00 18.12 8.04 18.12 9.27 L 18.12 9.30 C 17.94 13.51 21.15 16.05 24.15 15.77 C 24.42 15.73 24.68 15.68 24.94 15.62 C 28.59 14.71 29.79 11.53 29.72 9.14 L 29.72 9.14 C 29.68 8.08 29.10 7.24 28.17 6.68 Z" fill="url(#paint20_radial_6813_5229)" fill-rule="nonzero" node-id="305" stroke="none" target-height="9.947281" target-width="11.8465" target-x="17.9443" target-y="6.10072"></path><path d="M 28.17 6.68 C 27.82 6.47 26.97 6.10 26.01 6.10 C 25.91 6.10 25.81 6.10 25.70 6.10 C 24.30 6.10 22.02 6.10 21.17 6.26 C 20.34 6.41 20.07 6.53 19.96 6.58 C 18.88 7.00 18.12 8.04 18.12 9.27 L 18.12 9.30 C 17.94 13.51 21.15 16.05 24.15 15.77 C 24.42 15.73 24.68 15.68 24.94 15.62 C 28.59 14.71 29.79 11.53 29.72 9.14 L 29.72 9.14 C 29.68 8.08 29.10 7.24 28.17 6.68 Z" fill="url(#paint21_radial_6813_5229)" fill-rule="nonzero" node-id="307" stroke="none" target-height="9.947281" target-width="11.8465" target-x="17.9443" target-y="6.10072"></path><g node-id="315"><path d="M 28.52 8.49 C 28.73 8.94 28.80 9.44 28.70 9.88 C 28.60 10.32 28.35 10.66 27.99 10.83 C 27.64 11.01 27.21 10.99 26.80 10.80 C 26.40 10.60 26.05 10.24 25.83 9.80 C 25.61 9.35 25.54 8.85 25.64 8.41 C 25.74 7.97 26.00 7.63 26.35 7.45 C 26.71 7.28 27.14 7.29 27.54 7.49 C 27.95 7.68 28.30 8.04 28.52 8.49 Z" fill="url(#paint22_linear_6813_5229)" fill-rule="nonzero" group-id="3" node-id="311" stroke="none" target-height="3.7271857" target-width="3.2577305" target-x="25.543436" target-y="7.2792974"></path></g></svg>