<svg version="1.1" id="Layer_1" xmlns="http://www.w3.org/2000/svg" xmlns:xlink="http://www.w3.org/1999/xlink" x="0px" y="0px"
	 width="100%" viewBox="0 0 1024 1024" enable-background="new 0 0 1024 1024" xml:space="preserve">
<path fill="#000000" opacity="1.000000" stroke="none" 
	d="
M509.664429,544.497131 
	C511.222198,538.014893 509.430908,532.018372 508.158844,526.116821 
	C500.840973,492.167084 482.365479,466.258240 451.768463,449.385101 
	C448.521881,447.594727 448.587128,445.318329 449.186066,442.273621 
	C452.771149,424.048462 461.248444,408.160217 472.300507,393.500732 
	C483.457367,378.702240 496.008759,365.134583 509.117401,352.063049 
	C511.124023,350.062134 512.849976,349.009308 515.384399,351.512848 
	C534.997681,370.887390 553.619934,391.038147 566.606689,415.694427 
	C570.903381,423.852081 573.554321,432.575256 575.835144,441.477753 
	C577.003357,446.037567 575.575562,448.483887 571.641235,450.727264 
	C547.522278,464.480103 530.745728,484.486328 521.451233,510.679504 
	C517.930603,520.601196 516.318054,530.953308 514.766174,541.320618 
	C514.187195,545.188477 517.135620,544.983521 519.297913,546.157471 
	C521.486084,543.369690 521.172729,540.218811 521.522156,537.392273 
	C524.962952,509.558594 535.809143,485.514771 557.519104,467.127502 
	C571.163086,455.571716 586.967834,447.870178 603.753540,441.917419 
	C619.802979,436.225769 636.306274,432.345398 652.896362,428.742950 
	C654.283691,428.441650 655.791016,427.757050 657.575195,428.918060 
	C658.426758,432.430450 656.633545,435.844604 655.959900,439.295990 
	C653.022095,454.345734 651.946777,469.607880 650.263550,484.804993 
	C647.109863,513.277527 642.403503,541.324097 624.741394,565.161926 
	C606.912231,589.225281 583.702759,604.880981 553.634399,609.015869 
	C543.058960,610.470154 532.158997,610.374817 521.847351,607.904419 
	C513.602234,605.929260 506.051147,607.598022 498.230042,608.597961 
	C460.278992,613.449585 429.646942,600.249878 405.517822,571.059082 
	C391.581146,554.198914 384.149994,534.400391 379.767609,513.261108 
	C374.032349,485.596375 374.766541,457.024017 367.309204,429.133453 
	C372.832825,427.968719 377.437744,429.860901 381.930176,430.862976 
	C404.556366,435.909790 426.804016,442.188263 447.356384,453.326813 
	C480.022125,471.030304 498.719513,498.301453 503.410461,535.169128 
	C503.641144,536.982117 504.001556,538.778503 504.244385,540.590271 
	C504.484406,542.380798 504.020782,544.264465 504.953369,546.010620 
	C506.835175,547.010620 508.035095,545.564758 509.664429,544.497131 
z"/>
<path fill="#000000" opacity="1.000000" stroke="none" 
	d="
M555.361145,614.409973 
	C579.914795,610.301941 600.564270,599.622375 617.520569,581.987793 
	C620.003113,579.406006 621.835693,579.325562 624.698181,581.493958 
	C644.240356,596.297791 654.700867,616.773438 661.147400,639.690186 
	C663.449707,647.874695 664.981567,646.564941 656.000305,651.164856 
	C635.751831,661.535889 614.770020,668.869019 591.566589,668.347900 
	C559.168335,667.620239 527.745117,645.282959 516.825867,614.809509 
	C516.461060,613.791565 515.585083,612.737244 516.963684,610.885559 
	C529.104675,615.046692 541.976562,615.285461 555.361145,614.409973 
z"/>
<path fill="#000000" opacity="1.000000" stroke="none" 
	d="
M403.467957,580.236389 
	C406.165436,579.372009 407.024139,581.400391 408.216278,582.630188 
	C424.867676,599.807678 444.874817,610.842163 468.570038,614.278809 
	C480.278870,615.976990 492.162231,615.353577 503.715851,612.045288 
	C505.290283,611.594482 506.886780,611.220825 508.318390,610.851379 
	C509.988220,612.524414 508.954803,613.871887 508.446564,615.210754 
	C494.979553,650.687683 458.229187,672.248474 420.434906,667.636780 
	C401.554504,665.332947 384.296143,659.040771 367.779358,650.028442 
	C364.297485,648.128723 363.285278,646.153625 364.407654,642.069153 
	C370.852142,618.617188 380.746674,597.352722 400.661591,582.089661 
	C401.452850,581.483215 402.308533,580.960876 403.467957,580.236389 
z"/>
</svg>